<?xml version="1.0" encoding="UTF-8" standalone="no"?>
<!-- Created with Inkscape (http://www.inkscape.org/) -->

<svg
   xmlns:dc="http://purl.org/dc/elements/1.1/"
   xmlns:cc="http://creativecommons.org/ns#"
   xmlns:rdf="http://www.w3.org/1999/02/22-rdf-syntax-ns#"
   xmlns:svg="http://www.w3.org/2000/svg"
   xmlns="http://www.w3.org/2000/svg"
   xmlns:sodipodi="http://sodipodi.sourceforge.net/DTD/sodipodi-0.dtd"
   xmlns:inkscape="http://www.inkscape.org/namespaces/inkscape"
   width="78.502266mm"
   height="78.540932mm"
   viewBox="0 0 78.502266 78.540932"
   version="1.1"
   id="svg4528"
   inkscape:version="0.92.4 (unknown)"
   sodipodi:docname="logo.svg">
  <defs
     id="defs4522" />
  <sodipodi:namedview
     id="base"
     pagecolor="#ffffff"
     bordercolor="#666666"
     borderopacity="1.0"
     inkscape:pageopacity="0.0"
     inkscape:pageshadow="2"
     inkscape:zoom="1.4"
     inkscape:cx="90.89273"
     inkscape:cy="84.064083"
     inkscape:document-units="mm"
     inkscape:current-layer="layer1"
     showgrid="false"
     fit-margin-top="0"
     fit-margin-left="0"
     fit-margin-right="0"
     fit-margin-bottom="0"
     inkscape:window-width="1920"
     inkscape:window-height="1018"
     inkscape:window-x="0"
     inkscape:window-y="34"
     inkscape:window-maximized="1" />
  <metadata
     id="metadata4525">
    <rdf:RDF>
      <cc:Work
         rdf:about="">
        <dc:format>image/svg+xml</dc:format>
        <dc:type
           rdf:resource="http://purl.org/dc/dcmitype/StillImage" />
        <dc:title></dc:title>
      </cc:Work>
    </rdf:RDF>
  </metadata>
  <g
     inkscape:label="Layer 1"
     inkscape:groupmode="layer"
     id="layer1"
     transform="translate(-66.304532,-35.821169)">
    <path
       inkscape:connector-curvature="0"
       style="fill:#37c871;stroke-width:0.27198339"
       d="M 131.49567,45.589891 A 39.288503,39.288503 0 0 0 95.198277,37.214749 L 91.445544,59.35187 67.995513,63.653813 a 39.288503,39.288503 0 0 0 8.269172,37.544897 l 9.89268,-9.892682 c 0.755415,-0.755415 1.448197,-1.14557 2.077707,-1.170765 0.629604,-0.02529 1.183435,0.201219 1.661873,0.679657 0.453262,0.453262 0.667316,0.994639 0.642021,1.624237 -0.02529,0.629611 -0.415808,1.322021 -1.17113,2.077341 l -9.914603,9.914602 a 39.288503,39.288503 0 0 0 53.881167,-1.5665 39.288503,39.288503 0 0 0 1.32716,-54.094933 l -8.76905,8.76905 c -0.75542,0.75542 -1.44783,1.14594 -2.07734,1.171132 -0.60441,0.05048 -1.14579,-0.163573 -1.62424,-0.642021 -0.47845,-0.478455 -0.70532,-1.032649 -0.68002,-1.662239 0.0505,-0.604414 0.45345,-1.284382 1.20877,-2.039705 z"
       id="path138" />
    <path
       inkscape:connector-curvature="0"
       style="fill:#217844;stroke-width:0.27198339"
       d="M 90.57697,38.773213 A 39.288503,39.288503 0 0 0 77.771991,47.30219 39.288503,39.288503 0 0 0 69.67383,59.096086 L 87.479408,55.99012 Z"
       id="path3808" />
    <path
       d="m 104.35582,74.407884 v -8.066492 q 0,-0.871293 0.33727,-1.236672 0.33726,-0.365385 0.87129,-0.365385 0.50593,0 0.84319,0.365385 0.33726,0.365384 0.33726,1.236672 v 8.066492 l 7.673,-2.501459 q 0.53405,-0.16866 0.81509,-0.16866 0.44968,0 0.78697,0.365385 0.33727,0.337265 0.33727,0.815077 0,0.421568 -0.25297,0.730764 -0.22484,0.309146 -0.95561,0.534044 l -7.67301,2.501459 4.74996,6.520646 q 0.44969,0.646445 0.44969,1.011824 0,0.505925 -0.36539,0.871294 -0.33726,0.337265 -0.81508,0.337265 -0.61834,0 -1.20856,-0.815083 l -4.74996,-6.548754 -4.74996,6.548754 q -0.59022,0.815083 -1.180457,0.815083 -0.505926,0 -0.871294,-0.337265 -0.337265,-0.365385 -0.337265,-0.871294 0,-0.365385 0.477806,-1.011824 l 4.74995,-6.520646 -7.701107,-2.529561 q -0.702656,-0.224844 -0.955613,-0.505926 -0.224844,-0.309146 -0.224844,-0.730764 0,-0.477806 0.337266,-0.815077 0.337265,-0.365384 0.758866,-0.365384 0.309147,0 0.843191,0.16866 z"
       style="font-style:normal;font-variant:normal;font-weight:normal;font-stretch:normal;font-size:10.58333302px;line-height:1.25;font-family:'Courier New';-inkscape-font-specification:'Courier New';letter-spacing:0px;word-spacing:0px;fill:#16502d;fill-opacity:1;stroke:none;stroke-width:1.43903923"
       id="path126"
       inkscape:connector-curvature="0" />
  </g>
</svg>
