<?xml version="1.0" encoding="UTF-8" standalone="no"?>
<!-- Created with Inkscape (http://www.inkscape.org/) -->

<svg
   xmlns:dc="http://purl.org/dc/elements/1.1/"
   xmlns:cc="http://creativecommons.org/ns#"
   xmlns:rdf="http://www.w3.org/1999/02/22-rdf-syntax-ns#"
   xmlns:svg="http://www.w3.org/2000/svg"
   xmlns="http://www.w3.org/2000/svg"
   xmlns:sodipodi="http://sodipodi.sourceforge.net/DTD/sodipodi-0.dtd"
   xmlns:inkscape="http://www.inkscape.org/namespaces/inkscape"
   width="76.013016mm"
   height="67.852791mm"
   viewBox="0 0 76.013016 67.852792"
   version="1.1"
   id="svg8"
   inkscape:version="0.92.4 (unknown)"
   sodipodi:docname="logo-text-v.svg">
  <defs
     id="defs2" />
  <sodipodi:namedview
     id="base"
     pagecolor="#ffffff"
     bordercolor="#666666"
     borderopacity="1.0"
     inkscape:pageopacity="0.0"
     inkscape:pageshadow="2"
     inkscape:zoom="1.4"
     inkscape:cx="346.23275"
     inkscape:cy="32.836682"
     inkscape:document-units="mm"
     inkscape:current-layer="layer1"
     showgrid="false"
     fit-margin-top="0"
     fit-margin-left="0"
     fit-margin-right="0"
     fit-margin-bottom="0"
     inkscape:window-width="1920"
     inkscape:window-height="1018"
     inkscape:window-x="0"
     inkscape:window-y="34"
     inkscape:window-maximized="1" />
  <metadata
     id="metadata5">
    <rdf:RDF>
      <cc:Work
         rdf:about="">
        <dc:format>image/svg+xml</dc:format>
        <dc:type
           rdf:resource="http://purl.org/dc/dcmitype/StillImage" />
        <dc:title></dc:title>
      </cc:Work>
    </rdf:RDF>
  </metadata>
  <g
     inkscape:label="Layer 1"
     inkscape:groupmode="layer"
     id="layer1"
     transform="translate(-82.325723,-57.510317)">
    <g
       transform="matrix(0.63920447,0,0,0.63920447,52.860578,34.613265)"
       id="layer1-6"
       inkscape:label="Layer 1">
      <path
         id="path138"
         d="M 131.49567,45.589891 A 39.288503,39.288503 0 0 0 95.198277,37.214749 L 91.445544,59.35187 67.995513,63.653813 a 39.288503,39.288503 0 0 0 8.269172,37.544897 l 9.89268,-9.892682 c 0.755415,-0.755415 1.448197,-1.14557 2.077707,-1.170765 0.629604,-0.02529 1.183435,0.201219 1.661873,0.679657 0.453262,0.453262 0.667316,0.994639 0.642021,1.624237 -0.02529,0.629611 -0.415808,1.322021 -1.17113,2.077341 l -9.914603,9.914602 a 39.288503,39.288503 0 0 0 53.881167,-1.5665 39.288503,39.288503 0 0 0 1.32716,-54.094933 l -8.76905,8.76905 c -0.75542,0.75542 -1.44783,1.14594 -2.07734,1.171132 -0.60441,0.05048 -1.14579,-0.163573 -1.62424,-0.642021 -0.47845,-0.478455 -0.70532,-1.032649 -0.68002,-1.662239 0.0505,-0.604414 0.45345,-1.284382 1.20877,-2.039705 z"
         style="fill:#37c871;stroke-width:0.27198339"
         inkscape:connector-curvature="0" />
      <path
         id="path3808"
         d="M 90.57697,38.773213 A 39.288503,39.288503 0 0 0 77.771991,47.30219 39.288503,39.288503 0 0 0 69.67383,59.096086 L 87.479408,55.99012 Z"
         style="fill:#217844;stroke-width:0.27198339"
         inkscape:connector-curvature="0" />
      <path
         inkscape:connector-curvature="0"
         id="path126"
         style="font-style:normal;font-variant:normal;font-weight:normal;font-stretch:normal;font-size:10.58333302px;line-height:1.25;font-family:'Courier New';-inkscape-font-specification:'Courier New';letter-spacing:0px;word-spacing:0px;fill:#16502d;fill-opacity:1;stroke:none;stroke-width:1.43903923"
         d="m 104.35582,74.407884 v -8.066492 q 0,-0.871293 0.33727,-1.236672 0.33726,-0.365385 0.87129,-0.365385 0.50593,0 0.84319,0.365385 0.33726,0.365384 0.33726,1.236672 v 8.066492 l 7.673,-2.501459 q 0.53405,-0.16866 0.81509,-0.16866 0.44968,0 0.78697,0.365385 0.33727,0.337265 0.33727,0.815077 0,0.421568 -0.25297,0.730764 -0.22484,0.309146 -0.95561,0.534044 l -7.67301,2.501459 4.74996,6.520646 q 0.44969,0.646445 0.44969,1.011824 0,0.505925 -0.36539,0.871294 -0.33726,0.337265 -0.81508,0.337265 -0.61834,0 -1.20856,-0.815083 l -4.74996,-6.548754 -4.74996,6.548754 q -0.59022,0.815083 -1.180457,0.815083 -0.505926,0 -0.871294,-0.337265 -0.337265,-0.365385 -0.337265,-0.871294 0,-0.365385 0.477806,-1.011824 l 4.74995,-6.520646 -7.701107,-2.529561 q -0.702656,-0.224844 -0.955613,-0.505926 -0.224844,-0.309146 -0.224844,-0.730764 0,-0.477806 0.337266,-0.815077 0.337265,-0.365384 0.758866,-0.365384 0.309147,0 0.843191,0.16866 z" />
    </g>
    <g
       id="g447"
       transform="matrix(0.63219726,0,0,0.63219726,5.8541689,109.79617)">
      <path
         d="m 129.76224,17.036305 q 0,1.699845 -1.524,2.788422 -1.37328,0.97972 -3.14012,0.97972 -1.14719,0 -2.22739,-0.45218 -1.18069,-0.502421 -1.77521,-1.373274 -0.13398,-0.200971 -0.13398,-0.385197 0,-0.251201 0.19259,-0.435427 0.20097,-0.192594 0.46055,-0.192594 0.24284,0 0.48567,0.259587 0.11723,0.142354 0.36845,0.401931 1.02158,0.921103 2.62932,0.921103 1.23093,0 2.24414,-0.62802 1.16394,-0.72851 1.16394,-1.884071 0,-1.155571 -1.16394,-1.884071 -1.01321,-0.628031 -2.24414,-0.628031 -1.46539,0 -2.60421,-0.820614 -1.25605,-0.90436 -1.25605,-2.319498 0,-1.4151469 1.25605,-2.3195079 1.13882,-0.820613 2.60421,-0.820613 0.94623,0 1.82546,0.37681 0.97134,0.410307 1.46538,1.122074 0.14236,0.192593 0.14236,0.3851869 0,0.25121 -0.20097,0.443803 -0.20097,0.184217 -0.45218,0.184217 -0.23446,0 -0.49404,-0.259577 -0.97972,-0.9964739 -2.28601,-0.9964739 -0.92947,0 -1.69985,0.468934 -0.90436,0.5442839 -0.90436,1.4151469 0,0.870854 0.90436,1.415138 0.77038,0.468934 1.69985,0.468934 1.76684,0 3.14012,0.97971 1.524,1.088577 1.524,2.788432 z"
         style="font-style:normal;font-variant:normal;font-weight:normal;font-stretch:normal;font-size:19.88875198px;line-height:1.25;font-family:Monofur;-inkscape-font-specification:Monofur;letter-spacing:0px;word-spacing:0px;fill:#b3b3b3;fill-opacity:1;stroke:none;stroke-width:0.50241905"
         id="path25-7"
         inkscape:connector-curvature="0" />
      <path
         d="m 139.819,20.159673 q 0,0.251211 -0.19259,0.452181 -0.18423,0.20096 -0.43543,0.20096 -0.1926,0 -0.36845,-0.117224 l -5.35913,-3.717902 q -0.30983,-0.209347 -0.3517,-0.45218 v 3.650909 q 0,0.62803 -0.62802,0.62803 -0.62802,0 -0.62802,-0.62803 V 8.8719901 q 0,-0.62802 0.62802,-0.62802 0.62802,0 0.62802,0.62802 v 7.4190609 q 0.0419,-0.242843 0.3517,-0.45218 l 5.35913,-3.717902 q 0.17585,-0.117234 0.36845,-0.117234 0.2512,0 0.43543,0.20097 0.19259,0.20097 0.19259,0.452181 0,0.309817 -0.27632,0.50241 l -4.69763,3.248979 4.69763,3.248978 q 0.27632,0.192593 0.27632,0.50242 z"
         style="font-style:normal;font-variant:normal;font-weight:normal;font-stretch:normal;font-size:19.88875198px;line-height:1.25;font-family:Monofur;-inkscape-font-specification:Monofur;letter-spacing:0px;word-spacing:0px;fill:#b3b3b3;fill-opacity:1;stroke:none;stroke-width:0.50241905"
         id="path27-5"
         inkscape:connector-curvature="0" />
      <path
         d="m 149.86738,18.283979 q 0,0.159097 -0.10047,0.343314 -0.57779,1.00484 -1.73336,1.599374 -1.09693,0.57778 -2.30275,0.57778 -1.88407,0 -3.24897,-1.247674 -1.41515,-1.28117 -1.41515,-3.148498 0,-1.867318 1.41515,-3.148489 1.3649,-1.247674 3.24897,-1.247674 0.68664,0 1.43189,0.242834 0.83738,0.27633 1.66637,0.87923 1.02995,0.753631 1.02995,1.431901 0,0.334947 -0.32657,0.510787 l -6.34722,3.416452 q 1.02995,1.05508 2.54558,1.05508 1.61612,0 2.61258,-1.122063 0.11724,-0.15073 0.35169,-0.460557 0.24285,-0.309827 0.51917,-0.309827 0.25121,0 0.45218,0.184227 0.20096,0.184216 0.20096,0.443803 z m -1.58261,-3.960735 q -1.0216,-1.055081 -2.55397,-1.055081 -1.35654,0 -2.36138,0.87923 -1.0467,0.921104 -1.0467,2.260882 0,0.535916 0.18423,1.021583 z"
         style="font-style:normal;font-variant:normal;font-weight:normal;font-stretch:normal;font-size:19.88875198px;line-height:1.25;font-family:Monofur;-inkscape-font-specification:Monofur;letter-spacing:0px;word-spacing:0px;fill:#b3b3b3;fill-opacity:1;stroke:none;stroke-width:0.50241905"
         id="path29-3"
         inkscape:connector-curvature="0" />
      <path
         d="m 169.96415,18.911999 q 0,0.17585 -0.13398,0.385187 -0.4438,0.678271 -1.32304,1.105321 -0.83735,0.40194 -1.69147,0.40194 -1.5575,0 -2.66282,-1.10532 -1.10534,-1.105331 -1.10534,-2.662822 v -3.768142 h -1.25603 q -0.62803,0 -0.62803,-0.628031 0,-0.62802 0.62803,-0.62802 h 1.25603 V 8.8719901 q 0,-0.62802 0.62804,-0.62802 0.62802,0 0.62802,0.62802 v 3.1401219 h 3.14012 q 0.62802,0 0.62802,0.62802 0,0.628031 -0.62802,0.628031 h -3.14012 v 3.768142 q 0,1.038327 0.73687,1.775215 0.73689,0.736876 1.77523,0.736876 0.70338,0 1.23092,-0.32657 0.25122,-0.159097 0.72013,-0.611277 0.33495,-0.32657 0.54428,-0.32657 0.25959,0 0.45218,0.192594 0.20098,0.184216 0.20098,0.435426 z"
         style="font-style:normal;font-variant:normal;font-weight:normal;font-stretch:normal;font-size:19.88875198px;line-height:1.25;font-family:Monofur;-inkscape-font-specification:Monofur;letter-spacing:0px;word-spacing:0px;fill:#b3b3b3;fill-opacity:1;stroke:none;stroke-width:0.50241905"
         id="path33-5"
         inkscape:connector-curvature="0" />
      <path
         d="m 176.56259,9.1985601 q 0,0.393564 -0.28472,0.661517 -0.27632,0.2679639 -0.66989,0.2679639 -0.39356,0 -0.67826,-0.2679639 -0.27634,-0.267953 -0.27634,-0.661517 0,-0.393553 0.27634,-0.669893 0.2847,-0.284697 0.67826,-0.284697 0.39357,0 0.66989,0.284697 0.28472,0.27634 0.28472,0.669893 z m 2.18551,10.9778569 q 0,0.62803 -0.62803,0.62803 h -2.51209 q -0.62802,0 -0.62802,-0.62803 v -6.908254 h -1.88406 q -0.62804,0 -0.62804,-0.628031 0,-0.62802 0.62804,-0.62802 h 2.52046 q 0.61964,0 0.61964,0.62802 v 6.908264 h 1.88407 q 0.62803,0 0.62803,0.628021 z"
         style="font-style:normal;font-variant:normal;font-weight:normal;font-stretch:normal;font-size:19.88875198px;line-height:1.25;font-family:Monofur;-inkscape-font-specification:Monofur;letter-spacing:0px;word-spacing:0px;fill:#b3b3b3;fill-opacity:1;stroke:none;stroke-width:0.50241905"
         id="path35-6"
         inkscape:connector-curvature="0" />
      <path
         d="m 190.06092,13.72871 q 0,0.259587 -0.1926,0.460546 -0.1926,0.192594 -0.4438,0.192594 -0.17585,0 -0.41032,-0.159097 -1.34816,-0.95459 -2.71306,-0.95459 -1.44027,0 -2.56234,0.837357 -1.22254,0.912727 -1.22254,2.302754 0,1.390028 1.23092,2.302755 1.11369,0.837367 2.55396,0.837367 1.35654,0 2.71306,-0.946224 0.22609,-0.159096 0.40193,-0.159096 0.25959,0 0.45219,0.20097 0.1926,0.192593 0.1926,0.443803 0,0.242834 -0.23448,0.468924 -0.58615,0.586157 -1.64121,0.92947 -0.963,0.318204 -1.88409,0.318204 -1.96781,0 -3.44995,-1.197434 -1.591,-1.272794 -1.591,-3.198739 0,-1.925934 1.591,-3.198728 1.48214,-1.197434 3.44995,-1.197434 0.92109,0 1.88409,0.318194 1.06344,0.3517 1.6496,0.937857 0.22609,0.22608 0.22609,0.460547 z"
         style="font-style:normal;font-variant:normal;font-weight:normal;font-stretch:normal;font-size:19.88875198px;line-height:1.25;font-family:Monofur;-inkscape-font-specification:Monofur;letter-spacing:0px;word-spacing:0px;fill:#b3b3b3;fill-opacity:1;stroke:none;stroke-width:0.50241905"
         id="path37-2"
         inkscape:connector-curvature="0" />
      <path
         d="m 196.65935,15.462051 q 0,0.393563 -0.2847,0.67827 -0.27633,0.27633 -0.66988,0.27633 -0.39357,0 -0.67828,-0.27633 -0.27634,-0.284706 -0.27634,-0.67827 0,-0.385187 0.27634,-0.65314 0.28471,-0.27633 0.67828,-0.27633 0.39355,0 0.66988,0.27633 0.2847,0.267953 0.2847,0.65314 z"
         style="font-style:normal;font-variant:normal;font-weight:normal;font-stretch:normal;font-size:19.88875198px;line-height:1.25;font-family:Monofur;-inkscape-font-specification:Monofur;letter-spacing:0px;word-spacing:0px;fill:#000000;fill-opacity:1;stroke:none;stroke-width:0.50241905"
         id="path39-9"
         inkscape:connector-curvature="0" />
      <path
         d="m 159.90738,16.408274 q 0,1.741718 -1.10532,3.039642 -1.15556,1.356531 -2.87216,1.356531 -1.58262,0 -2.72143,-1.189057 v 4.329179 q 0,0.628019 -0.62803,0.628019 -0.62802,0 -0.62802,-0.628019 V 12.640132 q 0,-0.62802 0.62802,-0.62802 0.46055,0 0.57778,0.40193 0.0502,0.17585 0.0502,0.787127 1.1388,-1.189057 2.72143,-1.189057 1.71659,0 2.87215,1.356531 1.10532,1.297914 1.10532,3.039631 z m -1.25604,0 q 0,-1.222553 -0.73688,-2.143647 -0.7955,-0.996464 -1.98456,-0.996464 -1.18904,0 -1.98455,0.996464 -0.73688,0.921094 -0.73688,2.143647 0,1.222554 0.73688,2.143658 0.79551,0.996464 1.98455,0.996464 1.18906,0 1.98456,-0.996464 0.73688,-0.921104 0.73688,-2.143658 z"
         style="font-style:normal;font-variant:normal;font-weight:normal;font-stretch:normal;font-size:19.88875198px;line-height:1.25;font-family:Monofur;-inkscape-font-specification:Monofur;letter-spacing:0px;word-spacing:0px;fill:#b3b3b3;fill-opacity:1;stroke:none;stroke-width:0.50241905"
         id="path31-1"
         inkscape:connector-curvature="0" />
      <path
         d="m 210.75273,20.183677 q 0,0.634272 -0.63427,0.634272 h -6.76557 q -0.63427,0 -0.63427,-0.625816 V 8.7667811 q 0,-0.634272 0.63427,-0.634272 0.63427,0 0.63427,0.634272 V 19.549405 h 6.1313 q 0.63427,0 0.63427,0.634272 z"
         style="font-style:normal;font-variant:normal;font-weight:normal;font-stretch:normal;font-size:10.58333302px;line-height:1.25;font-family:Monofur;-inkscape-font-specification:Monofur;letter-spacing:0px;word-spacing:0px;fill:#217844;fill-opacity:1;stroke:none;stroke-width:0.50741756"
         id="path178"
         inkscape:connector-curvature="0" />
      <path
         d="m 220.47825,20.183677 q 0,0.634272 -0.63427,0.634272 -0.65119,0 -0.63428,-0.896439 -1.25163,0.896439 -2.95994,0.896439 -1.56453,0 -2.79925,-0.786497 -1.42923,-0.913352 -1.42923,-2.384864 0,-1.471511 1.42923,-2.384863 1.24317,-0.786497 2.79925,-0.786497 1.70831,0 2.95994,0.896439 V 15.1095 q 0,-0.372105 -0.26216,-0.752669 -0.77806,-1.150146 -2.69778,-1.150146 -1.0994,0 -2.17344,0.625814 -0.21989,0.126862 -0.38056,0.126862 -0.25371,0 -0.44824,-0.194509 -0.18602,-0.202968 -0.18602,-0.465133 0,-0.625814 1.32775,-1.040206 1.03174,-0.321364 1.86054,-0.321364 1.55607,0 2.79923,0.786497 1.42924,0.913352 1.42924,2.384861 z m -1.26855,-2.537089 q 0,-0.600443 -0.57508,-1.10786 -0.48205,-0.42285 -1.14169,-0.617359 -0.57508,-0.177588 -1.24317,-0.177588 -1.96202,0 -2.7316,1.200887 -0.22834,0.355194 -0.22834,0.701928 0,0.346736 0.22834,0.701928 0.76958,1.200889 2.7316,1.200889 0.66809,0 1.24317,-0.177588 0.65964,-0.194509 1.14169,-0.617357 0.57508,-0.507419 0.57508,-1.107862 z"
         style="font-style:normal;font-variant:normal;font-weight:normal;font-stretch:normal;font-size:10.58333302px;line-height:1.25;font-family:Monofur;-inkscape-font-specification:Monofur;letter-spacing:0px;word-spacing:0px;fill:#000000;fill-opacity:1;stroke:none;stroke-width:0.50741756"
         id="path180"
         inkscape:connector-curvature="0" />
      <path
         d="m 230.62659,20.183677 q 0,0.634272 -0.63427,0.634272 -0.63428,0 -0.63428,-0.634272 v -4.439904 q 0,-1.048664 -0.74421,-1.792875 -0.74422,-0.744213 -1.79287,-0.744213 -1.04867,0 -1.79289,0.744213 -0.74421,0.744211 -0.74421,1.792875 v 4.439904 q 0,0.634272 -0.63427,0.634272 -0.63427,0 -0.63427,-0.634272 v -7.611264 q 0,-0.634272 0.63427,-0.634272 0.64274,0 0.63427,0.972551 1.08249,-0.972551 2.5371,-0.972551 1.57298,0 2.68931,1.116318 1.11632,1.116318 1.11632,2.689314 z"
         style="font-style:normal;font-variant:normal;font-weight:normal;font-stretch:normal;font-size:10.58333302px;line-height:1.25;font-family:Monofur;-inkscape-font-specification:Monofur;letter-spacing:0px;word-spacing:0px;fill:#000000;fill-opacity:1;stroke:none;stroke-width:0.50741756"
         id="path182"
         inkscape:connector-curvature="0" />
      <path
         d="m 241.19777,12.572413 q 0,0.515874 -0.54969,0.617359 -0.13521,0.02537 -0.93872,0.01688 0.72731,0.828783 0.72731,1.902815 0,1.522253 -1.36158,2.460977 2.12268,1.107861 2.12268,3.247472 0,1.674478 -1.41229,2.782339 -1.30239,1.023292 -3.02759,1.023292 -1.72522,0 -3.02759,-1.023292 -1.41232,-1.107861 -1.41232,-2.782339 0,-0.634272 0.63429,-0.634272 0.63425,0 0.63425,0.634272 0,1.141689 1.04866,1.877445 0.93874,0.659644 2.12271,0.659644 1.18396,0 2.12268,-0.659644 1.04869,-0.735756 1.04869,-1.877445 0,-1.14169 -1.04869,-1.877444 -0.93872,-0.659644 -2.12268,-0.659644 -1.42922,0 -2.51173,-0.854154 -1.16705,-0.921807 -1.16705,-2.317207 0,-1.395398 1.16705,-2.317205 1.08251,-0.854153 2.51173,-0.854153 h 3.80564 q 0.63424,0 0.63424,0.634272 z m -2.02965,2.537087 q 0,-0.854151 -0.80341,-1.412311 -0.71039,-0.490504 -1.60682,-0.490504 -0.89644,0 -1.60683,0.490504 -0.80341,0.55816 -0.80341,1.412311 0,0.854153 0.80341,1.412313 0.71039,0.490504 1.60683,0.490504 0.89643,0 1.60682,-0.490504 0.80341,-0.55816 0.80341,-1.412313 z"
         style="font-style:normal;font-variant:normal;font-weight:normal;font-stretch:normal;font-size:10.58333302px;line-height:1.25;font-family:Monofur;-inkscape-font-specification:Monofur;letter-spacing:0px;word-spacing:0px;fill:#000000;fill-opacity:1;stroke:none;stroke-width:0.50741756"
         id="path184"
         inkscape:connector-curvature="0" />
    </g>
  </g>
</svg>
